<svg xmlns="http://www.w3.org/2000/svg" width="24.986" height="24.159" viewBox="0 0 24.986 24.159"><defs><style>.a{fill:#fff;}</style></defs><g transform="translate(-943.949 -393.948)"><path class="a" d="M2,13.59a1.324,1.324,0,0,1,1.324-1.324H5.971A1.324,1.324,0,0,1,7.295,13.59v6.619a1.324,1.324,0,0,1-1.324,1.324H3.324A1.324,1.324,0,0,1,2,20.208ZM9.942,8.295a1.324,1.324,0,0,1,1.324-1.324h2.647a1.324,1.324,0,0,1,1.324,1.324V20.208a1.324,1.324,0,0,1-1.324,1.324H11.266a1.324,1.324,0,0,1-1.324-1.324Zm7.942-3.971A1.324,1.324,0,0,1,19.208,3h2.647A1.324,1.324,0,0,1,23.18,4.324V20.208a1.324,1.324,0,0,1-1.324,1.324H19.208a1.324,1.324,0,0,1-1.324-1.324Z" transform="translate(945.756 396.575)"/><g transform="translate(943.949 393.948)"><path class="a" d="M2,7.477A5.477,5.477,0,0,1,7.477,2V7.477h5.477A5.477,5.477,0,0,1,2,7.477Z" transform="translate(-2 -2)"/><path class="a" d="M12,2.252a5.486,5.486,0,0,1,3.935,3.935H12Z" transform="translate(-5.154 -2.079)"/></g></g></svg>