<svg xmlns="http://www.w3.org/2000/svg" width="29.011" height="25.187" viewBox="0 0 29.011 25.187"><defs><style>.a,.b,.d{fill:#fff;}.b,.d{stroke:#fff;}.b{stroke-width:3px;}.c{fill:#d9e3ef;}.d,.e{stroke-width:2px;}.e,.g{fill:none;}.e{stroke:#d9e3ef;stroke-linecap:round;stroke-linejoin:round;}.f{stroke:none;}</style></defs><g transform="translate(-996.78 -93.709)"><rect class="a" width="26.866" height="7.556" rx="3" transform="translate(996.78 93.709)"/><g class="b" transform="translate(996.78 102.944)"><rect class="f" width="7.556" height="7.556" rx="1"/><rect class="g" x="1.5" y="1.5" width="4.556" height="4.556" rx="0.5"/></g><rect class="c" width="7.556" height="7.556" rx="2" transform="translate(1006.855 102.944)"/><rect class="c" width="7.556" height="7.556" rx="2" transform="translate(1016.09 102.944)"/><rect class="c" width="7.556" height="7.556" rx="2" transform="translate(996.78 111.34)"/><rect class="c" width="7.556" height="7.556" rx="2" transform="translate(1006.855 111.34)"/><g class="d" transform="translate(1016.09 111.34)"><rect class="f" width="7.556" height="7.556" rx="2"/><rect class="g" x="1" y="1" width="5.556" height="5.556" rx="1"/></g><path class="e" d="M-19636.947-20793.66l1.859,1.859,4.338-4.336" transform="translate(20655.127 20908.033)"/><path class="e" d="M-19636.947-20793.66l1.859,1.859,4.338-4.336" transform="translate(20635.564 20899.281)"/></g></svg>