<svg xmlns="http://www.w3.org/2000/svg" width="25.044" height="25.335" viewBox="0 0 25.044 25.335"><defs><style>.a{fill:#fff;}</style></defs><g transform="translate(-4.368 -2.121)"><path class="a" d="M24.06,15.922l-.013.025a10.668,10.668,0,0,0,.1-1.279,10.252,10.252,0,0,0-.089-1.254l.013.025,3.091-2.432L24.086,5.661,20.45,7.13l.013.013A9.711,9.711,0,0,0,18.3,5.876h.013L17.726,2H11.557L11,5.889h.013A9.711,9.711,0,0,0,8.846,7.156l.013-.013L5.211,5.661,2.12,11.007l3.091,2.432.013-.025a10.252,10.252,0,0,0-.089,1.254,8.572,8.572,0,0,0,.1,1.279l-.013-.025-2.66,2.09-.418.329,3.078,5.32L8.872,22.2l-.025-.051a9.459,9.459,0,0,0,2.191,1.279H11l.57,3.9h6.144s.038-.228.076-.532l.481-3.357h-.013a9.729,9.729,0,0,0,2.191-1.279l-.025.051,3.648,1.457,3.078-5.32s-.177-.152-.418-.329l-2.673-2.1ZM14.636,19.1a4.434,4.434,0,1,1,4.434-4.434A4.439,4.439,0,0,1,14.636,19.1Z" transform="translate(2.248 0.121)"/></g></svg>