<svg xmlns="http://www.w3.org/2000/svg" width="25" height="25" viewBox="0 0 25 25"><defs><style>.a{fill:#fff;}</style></defs><g transform="translate(148.858 158.858)"><path class="a" d="M-127.583-124.145a1.563,1.563,0,0,0-1.563,1.562,1.563,1.563,0,0,0,1.563,1.563,1.563,1.563,0,0,0,1.563-1.563A1.563,1.563,0,0,0-127.583-124.145Zm7.5,0a1.563,1.563,0,0,0-1.563,1.562,1.563,1.563,0,0,0,1.563,1.563,1.563,1.563,0,0,0,1.563-1.563A1.563,1.563,0,0,0-120.083-124.145Zm-3.75-12.188a12.5,12.5,0,0,0-12.5,12.5,12.5,12.5,0,0,0,12.5,12.5,12.5,12.5,0,0,0,12.5-12.5A12.5,12.5,0,0,0-123.833-136.333Zm0,22.5a10.013,10.013,0,0,1-10-10,10.138,10.138,0,0,1,.063-1.075,12.577,12.577,0,0,0,6.513-6.713,12.467,12.467,0,0,0,10.2,5.288,12.2,12.2,0,0,0,2.813-.325,9.957,9.957,0,0,1,.413,2.825A10.013,10.013,0,0,1-123.833-113.833Z" transform="translate(-12.525 -22.525)"/></g></svg>